PathFileType	4	(x/y/z)	TRC_MarkerData\Passive\Passive_Pref0011.trc
DataRate	CameraRate	NumFrames	NumMarkers	Units	OrigDataRate	OrigDataStartFrame	OrigNumFrames
240	240	4	50	mm	240	39	309
Frame#	Time	R_AC			L_AC			HEAD			STERN			C7			L_IC			R_IC			L_ASIS			R_ASIS			L_GT			R_GT			L_PSIS			R_PSIS			SACRAL			L_LAT_KNEE			L_MED_KNEE			R_LAT_KNEE			R_MED_KNEE			L_LAT_ANK			L_MED_ANK			R_LAT_ANK			R_MED_ANK			L_THIGH_PROX_POST			L_THIGH_PROX_ANT			L_THIGH_DIST_ANT			L_THIGH_DIST_POST			R_THIGH_PROX_POST			R_THIGH_PROX_ANT			R_THIGH_DIST_ANT			R_THIGH_DIST_POST			L_SHANK_PROX_POST			L_SHANK_PROX_ANT			L_SHANK_DIST_ANT			L_SHANK_DIST_POST			R_SHANK_PROX_POST			R_SHANK_PROX_ANT			R_SHANK_DIST_ANT			R_SHANK_DIST_POST			L_HEEL_LAT			L_HEEL_SUP			L_HEEL_MED			R_HEEL_LAT			R_HEEL_SUP			R_HEEL_MED			L_1ST_MET			L_5TH_MET			L_TOE			R_1ST_MET			R_5TH_MET			R_TOE			
		X1	Y1	Z1	X2	Y2	Z2	X3	Y3	Z3	X4	Y4	Z4	X5	Y5	Z5	X6	Y6	Z6	X7	Y7	Z7	X8	Y8	Z8	X9	Y9	Z9	X10	Y10	Z10	X11	Y11	Z11	X12	Y12	Z12	X13	Y13	Z13	X14	Y14	Z14	X15	Y15	Z15	X16	Y16	Z16	X17	Y17	Z17	X18	Y18	Z18	X19	Y19	Z19	X20	Y20	Z20	X21	Y21	Z21	X22	Y22	Z22	X23	Y23	Z23	X24	Y24	Z24	X25	Y25	Z25	X26	Y26	Z26	X27	Y27	Z27	X28	Y28	Z28	X29	Y29	Z29	X30	Y30	Z30	X31	Y31	Z31	X32	Y32	Z32	X33	Y33	Z33	X34	Y34	Z34	X35	Y35	Z35	X36	Y36	Z36	X37	Y37	Z37	X38	Y38	Z38	X39	Y39	Z39	X40	Y40	Z40	X41	Y41	Z41	X42	Y42	Z42	X43	Y43	Z43	X44	Y44	Z44	X45	Y45	Z45	X46	Y46	Z46	X47	Y47	Z47	X48	Y48	Z48	X49	Y49	Z49	X50	Y50	Z50	

39	0.15885	-681.63	1505.1	462.67	-721.8	1515.9	57.233	-672.43	1835.4	268.66	-624.39	1477	259.08	-761.08	1551.8	263.33	-704.47	1071.1	114.6	-704.44	1093.8	447.69	-644.39	1022.5	152.16	-644.51	1019.4	420.34	-731.09	938.17	99.192	-746.66	946.37	461.97	-842.93	1036.3	224.51	-844.77	1034.4	331.52	-857.57	1003.3	277.75	-588.25	565.43	150.39	-597.93	579	289	-833.73	538.63	452.62	-812.49	522.3	319.5	-551.05	112.71	173.95	-561.92	110.32	263.39	-1193.1	230.45	394.66	-1131.6	222.14	308.27	-693.28	754.99	118.96	-630.91	769.58	118.51	-607.04	702.95	134.76	-669.9	686.15	132.74	-798	771.64	463.53	-730.49	760.72	467.59	-747.82	686.34	463.03	-816.15	700.01	455.39	-597.17	462.8	169.61	-535.14	475.65	179.3	-526.61	426.7	187.88	-582.49	416.46	167.93	-989.29	431.57	452.33	-937.68	388.1	446.11	-990.36	336.95	431.74	-1042.9	380.63	435.26	-592.52	32.053	175.09	-612.67	57.928	204.93	-604.95	33.676	241.15	-1257.3	273.49	353.08	-1223.7	289.53	327.97	-1229.9	262.7	293.54	-389.95	66.961	296.41	-397.07	62.772	185.1	-343.11	90.999	269.92	-1141.5	77.729	311.69	-1187.7	80.33	414.22	-1123.8	42.58	354.94
40	0.16303	-676.02	1506.1	462.19	-715.92	1516.9	56.783	-666.94	1836.3	268.08	-618.86	1477.9	258.64	-755.48	1552.7	262.83	-699.09	1072.1	114.15	-698.91	1094.7	447.32	-639.06	1023.6	151.57	-638.93	1020.2	419.69	-725.97	939.35	98.721	-740.47	946.78	461.51	-837.52	1037.4	224.33	-839.3	1035.4	331.31	-852.06	1004.4	277.53	-584.98	565.64	149.42	-594.5	579.48	288.02	-822.96	537.85	452.99	-801.82	521.46	319.72	-550.51	112.66	173.8	-561.29	110.49	263.19	-1184.9	233.97	395.5	-1123.5	224.43	309.08	-689.2	756.24	118.48	-626.43	770.21	117.67	-603.05	703.36	133.97	-666.08	687.03	131.98	-789.81	771.07	463.6	-722.08	760.91	467.38	-738.67	686.35	463.03	-807.18	699.23	455.69	-594.54	463.06	168.84	-532.42	475.56	178.45	-524.17	426.58	187.09	-580.13	416.65	167.22	-978.83	432.32	452.98	-927.68	388.32	446.61	-980.92	337.71	432.29	-1033	381.92	435.91	-592.41	32.161	175.07	-612.45	58.122	204.91	-604.8	33.887	241.14	-1248.2	278.34	353.8	-1214.1	293.72	328.8	-1221	267.02	294.41	-389.58	66.282	296.15	-396.81	61.953	184.86	-342.62	90.031	269.59	-1136.1	79.832	313.03	-1182.5	83.422	415.05	-1119.4	43.468	356.24
41	0.16721	-670.45	1507.1	461.75	-710.05	1517.9	56.354	-661.44	1837.2	267.52	-613.35	1478.8	258.23	-749.89	1553.7	262.35	-693.74	1073.1	113.72	-693.44	1095.6	446.96	-633.75	1024.6	151.01	-633.41	1021	419.06	-720.86	940.52	98.26	-734.34	947.21	461.05	-832.14	1038.6	224.13	-833.86	1036.3	331.08	-846.6	1005.4	277.27	-581.82	565.82	148.49	-591.2	579.92	287.06	-812.14	537.16	453.31	-791.11	520.73	319.87	-549.98	112.61	173.66	-560.69	110.66	262.98	-1176.4	237.45	396.29	-1115.2	226.71	309.86	-685.15	757.49	118.03	-621.99	770.84	116.87	-599.12	703.76	133.24	-662.32	687.92	131.22	-781.63	770.55	463.64	-713.68	761.15	467.16	-729.52	686.42	463.02	-798.21	698.5	455.95	-591.99	463.31	168.1	-529.8	475.46	177.64	-521.82	426.45	186.34	-577.86	416.82	166.55	-968.27	433.09	453.57	-917.56	388.58	447.06	-971.32	338.49	432.79	-1022.9	383.22	436.52	-592.3	32.265	175.06	-612.25	58.306	204.88	-604.65	34.091	241.14	-1238.9	282.97	354.47	-1204.4	297.71	329.54	-1212	271.11	295.24	-389.23	65.646	295.92	-396.56	61.18	184.63	-342.17	89.119	269.28	-1130.3	81.956	314.44	-1176.8	86.566	415.99	-1114.4	44.538	357.66
42	0.17139	-664.93	1508.1	461.32	-704.19	1518.9	55.944	-655.94	1838.1	266.96	-607.87	1479.7	257.84	-744.33	1554.7	261.89	-688.42	1074.2	113.3	-688.03	1096.6	446.6	-628.46	1025.7	150.47	-627.96	1021.9	418.46	-715.77	941.67	97.81	-728.27	947.67	460.61	-826.8	1039.7	223.9	-828.47	1037.1	330.83	-841.19	1006.4	276.99	-578.77	566	147.59	-588.02	580.34	286.15	-801.28	536.54	453.57	-780.39	520.11	319.97	-549.47	112.57	173.52	-560.1	110.81	262.79	-1167.8	240.87	397.03	-1106.7	228.95	310.6	-681.14	758.73	117.62	-617.59	771.45	116.13	-595.23	704.14	132.56	-658.63	688.81	130.48	-773.47	770.09	463.65	-705.29	761.45	466.95	-720.38	686.56	463	-789.24	697.83	456.16	-589.52	463.54	167.39	-527.27	475.36	176.86	-519.56	426.33	185.62	-575.67	417	165.9	-957.61	433.89	454.1	-907.33	388.9	447.45	-961.6	339.3	433.23	-1012.8	384.52	437.08	-592.19	32.364	175.06	-612.05	58.48	204.86	-604.51	34.287	241.13	-1229.6	287.35	355.06	-1194.7	301.5	330.19	-1202.9	274.92	296.01	-388.9	65.049	295.69	-396.33	60.45	184.42	-341.75	88.257	268.99	-1124	84.091	315.92	-1170.5	89.743	417.04	-1108.9	45.79	359.18
